<svg width="400" height="100" viewBox="0 0 400 100" xmlns="http://www.w3.org/2000/svg">
  <defs>
    <linearGradient id="mainGrad" x1="0%" y1="0%" x2="100%" y2="100%">
      <stop offset="0%" style="stop-color:#667eea;stop-opacity:1" />
      <stop offset="100%" style="stop-color:#764ba2;stop-opacity:1" />
    </linearGradient>
    
    <linearGradient id="accentGrad" x1="0%" y1="0%" x2="100%" y2="100%">
      <stop offset="0%" style="stop-color:#84fab0;stop-opacity:1" />
      <stop offset="100%" style="stop-color:#8fd3f4;stop-opacity:1" />
    </linearGradient>
  </defs>
  
  <!-- Icon part -->
  <g transform="translate(50, 50)">
    <!-- Letter I with DNA -->
    <rect x="-10" y="-35" width="20" height="70" fill="url(#mainGrad)" rx="10"/>
    <path d="M -6,-28 Q 0,-21 6,-14 Q 0,-7 -6,0 Q 0,7 6,14 Q 0,21 -6,28" 
          stroke="white" stroke-width="2.5" fill="none" opacity="0.6"/>
    <circle cx="-6" cy="-28" r="3" fill="white" opacity="0.8"/>
    <circle cx="6" cy="-14" r="3" fill="white" opacity="0.8"/>
    <circle cx="-6" cy="0" r="3" fill="white" opacity="0.8"/>
    <circle cx="6" cy="14" r="3" fill="white" opacity="0.8"/>
    <circle cx="-6" cy="28" r="3" fill="white" opacity="0.8"/>
    
    <!-- Sparkle -->
    <path d="M 20,-30 L 22,-26 L 26,-28 L 22,-26 L 24,-22 L 22,-26 L 18,-24 L 22,-26 Z" 
          fill="url(#accentGrad)"/>
  </g>
  
  <!-- Text -->
  <text x="100" y="62" font-family="'Segoe UI', Arial, sans-serif" font-size="42" 
        font-weight="bold" fill="url(#mainGrad)">
    IMOGENE
  </text>
  <text x="100" y="80" font-family="'Segoe UI', Arial, sans-serif" font-size="14" 
        font-weight="normal" fill="#718096" letter-spacing="2">
    IMAGE GENERATION STUDIO
  </text>
</svg>